<svg xmlns="http://www.w3.org/2000/svg" viewBox="0 0 760.97 395.3"><defs><style>.cls-1{fill:#b1740f;}.cls-2{fill:#ffd07b;}.cls-3{fill:#293132;}.cls-4{fill:#8a8e8f;}</style></defs><title>ab-ax-icon</title><g id="Layer_2" data-name="Layer 2"><g id="Layer_1-2" data-name="Layer 1"><path class="cls-1" d="M753.74,190.77c-71-11.65-160.92-18.62-258.78-18.62-33.28,0-65.65.81-96.68,2.33-24.74,1.22-48.63,2.89-71.44,5-42.7,2.27-87.92,3.48-134.71,3.48q-33.07,0-65-.79c-35.63-.88-70-2.47-102.67-4.69a136.47,136.47,0,0,0-1.73,21.81q0,6.5.58,12.73c33.54-1.82,68.51-3.21,104.62-4.13q15.7-.39,31.7-.68,35.65-.62,72.51-.63c199.61,0,376.21,14.17,483.86,35.9,27.59-11.43,43.11-24.31,43.11-37.94C759.1,199.83,757.26,195.24,753.74,190.77Z"/><path class="cls-2" d="M23,197.38,23,196c3.64-.36,7.78-.57,12.17-.57,1.82,0,3.6,0,5.32.11-3.45-.32-7.32-.5-11.41-.5-2.08,0-4.11,0-6.06.14l0-.8h.65c1.24,0,2.45,0,3.64,0-1.49-.08-2.91-.19-4.28-.32.11-3.06.33-6.07.64-9,2.19-.18,4.53-.32,7-.38-2.2-.12-4.52-.18-6.92-.18q.38-3.45.92-6.8l-1.54-.1c-.37,2.26-.68,4.57-.93,6.91,0,.23-.06.46-.08.69q-.45,4.32-.63,8.76c0,.16,0,.32,0,.49l0,.89c0,.3,0,.61,0,.91s0,.75,0,1.12,0,.68,0,1,0,.68,0,1c0,1.79,0,3.57.11,5.34v.12c0,.54.05,1.08.07,1.62,0,.19,0,.37,0,.55.09,1.71.21,3.41.36,5.09l1.55-.08c-.16-1.72-.27-3.45-.37-5.19l0-.52c2.53-.25,4.82-.57,6.77-1-2.15-.09-4.21-.22-6.14-.4l-.69-.07c-.07-1.82-.11-3.65-.11-5.5v-.84C23,198.08,23,197.73,23,197.38Z"/><path class="cls-2" d="M760.72,202a18.56,18.56,0,0,0-.49-2.28,25.47,25.47,0,0,0-4.62-8.63l-1.83-.29a25.26,25.26,0,0,1,4.63,8.72c-2.27-.23-4.63-.44-7-.62-11.15-.81-21.16-.75-27.72,0a163.22,163.22,0,0,1,27.24,1.58c2.76.36,5.43.76,8,1.19a18.18,18.18,0,0,1,.25,2.85,18.8,18.8,0,0,1-.86,5.52c-.21.67-.45,1.34-.73,2-.16.38-.34.75-.52,1.12a115.61,115.61,0,0,0-19.14.23c4.14.37,8.73.93,13.56,1.69,1.43,0,2.94,0,4.51,0l-.39.65a37.84,37.84,0,0,1-5.55,6.63,98.3,98.3,0,0,1-12.29-3c1.79,1.29,5.79,2.66,11.27,3.93-.56.51-1.15,1-1.75,1.52-1.67-.24-3.39-.46-5.15-.67l-3.48-.38c-15.9-1.65-29.52-1.42-34.1.34,5.88-1.07,18.12-.74,32.08,1.08,3,.39,5.86.82,8.61,1.29q-1.73,1.32-3.63,2.63c-.84.57-1.72,1.15-2.62,1.72-1.7,1.07-3.49,2.14-5.39,3.2l-2.35,1.28c-1.42.75-2.88,1.49-4.4,2.23l-1.26-.15a176.59,176.59,0,0,1-24-4.64c2.69,2.09,10.84,4.55,21.56,6.54q-3.37,1.55-7,3.06l1.76.35q3.68-1.52,7.07-3.08c1.32-.61,2.6-1.22,3.86-1.83,1.48-.73,2.93-1.47,4.32-2.21l2.43-1.32c1.86-1,3.62-2.1,5.29-3.16.86-.54,1.69-1.08,2.49-1.63q1.95-1.32,3.69-2.67.87-.68,1.68-1.35l.42-.35q.84-.7,1.62-1.41l1.09-1a37.48,37.48,0,0,0,5.56-6.63l.55-.92c.37-.63.71-1.26,1-1.89.17-.36.33-.71.48-1.07a19.72,19.72,0,0,0,.75-2.11,18.46,18.46,0,0,0,.79-5.28A18.05,18.05,0,0,0,760.72,202Z"/><path class="cls-3" d="M214.79,197.65c-.07-2-.12-4-.12-6a170,170,0,0,1,32-99.56,170.77,170.77,0,0,0-215.78,0,170,170,0,0,1,32,99.56c0,2,0,4-.11,6s.11,4,.11,6a170.07,170.07,0,0,1-32,99.57,170.8,170.8,0,0,0,215.78,0,170.07,170.07,0,0,1-32-99.57C214.67,201.64,214.72,199.64,214.79,197.65Z"/><path class="cls-4" d="M252.22,298.49a170,170,0,0,1-37.43-100.84c-.07,2-.12,4-.12,6a170.07,170.07,0,0,0,32,99.57,170.8,170.8,0,0,1-215.78,0,170.07,170.07,0,0,0,32-99.57c0-2,0-4-.11-6A170,170,0,0,1,25.36,298.49,171.73,171.73,0,0,1,0,324.06q2.67,3.72,5.54,7.28a170.79,170.79,0,0,0,266.51,0q2.85-3.57,5.53-7.28A172.21,172.21,0,0,1,252.22,298.49Z"/><path class="cls-4" d="M30.9,92.09a170.77,170.77,0,0,1,215.78,0,170,170,0,0,0-32,99.56c0,2,.05,4,.12,6A170,170,0,0,1,252.22,96.81a172.21,172.21,0,0,1,25.36-25.57q-2.67-3.72-5.53-7.28A170.79,170.79,0,0,0,5.54,64Q2.68,67.53,0,71.24A171.73,171.73,0,0,1,25.36,96.81,170,170,0,0,1,62.8,197.65c.06-2,.11-4,.11-6A170,170,0,0,0,30.9,92.09Z"/><rect class="cls-3" x="52.79" y="171.17" width="171.43" height="49.25"/><rect class="cls-4" x="58.47" y="176.85" width="143.02" height="3.79"/></g></g></svg>