<svg xmlns="http://www.w3.org/2000/svg" viewBox="0 0 684.13 129.41"><defs><style>.cls-1{fill:#8a8e8f;}.cls-2{fill:#293132;}.cls-3{fill:#ffd07b;}.cls-4{fill:#b1740f;}</style></defs><title>ab-dagger-icon</title><g id="Layer_2" data-name="Layer 2"><g id="Layer_1-2" data-name="Layer 1"><path class="cls-1" d="M645.22,22.77c-41,7.47-90,11.81-142.68,11.81-22.84,0-45-.82-66.1-2.35-45.54-3.31-86.25-10-118.56-19l-.17.06C285.26,4.83,248.11,0,208.62,0,116.1,0,36.37,26.51,0,64.7c36.37,38.2,116.1,64.71,208.62,64.71,39.49,0,76.64-4.83,109.09-13.33l.17,0c32.31-9,73-15.64,118.56-18.95,21.11-1.53,43.26-2.35,66.1-2.35,52.64,0,101.65,4.34,142.68,11.81,24.51-11.87,38.91-26.33,38.91-41.94S669.73,34.63,645.22,22.77Z"/><path class="cls-2" d="M631.47,34.59C594,40,549.34,43.07,501.32,43.07c-20.83,0-41-.59-60.3-1.69C399.48,39,362.35,34.23,332.87,27.77l-.15.05c-29.6-6.11-63.49-9.58-99.5-9.58-84.4,0-157.14,19-190.31,46.46,33.17,27.43,105.91,46.46,190.31,46.46,36,0,69.9-3.46,99.5-9.57l.15,0C362.35,95.17,399.48,90.4,441,88c19.26-1.1,39.47-1.69,60.3-1.69,48,0,92.72,3.12,130.15,8.48C653.83,86.3,667,75.91,667,64.7S653.83,43.11,631.47,34.59Z"/><path class="cls-1" d="M74.86,69.35C108,43.88,180.77,26.21,265.16,26.21c13.45,0,26.6.45,39.34,1.3a533,533,0,0,0-59.42-3.26C166.32,24.25,97.72,40.83,62,65.33A175.44,175.44,0,0,0,94.13,81.15,119.32,119.32,0,0,1,74.86,69.35Z"/><path class="cls-3" d="M645.33,64.7c0-17.64-3.18-34.06-8.62-47.78-6.56,1.3-13.32,2.5-20.23,3.6l-.27-.8,0-.1A2.62,2.62,0,0,0,614.63,18a2.68,2.68,0,0,0-.91-.54,2.62,2.62,0,0,0-3.31,1.65l-.56,1.68,1.26-.21a2.25,2.25,0,0,0,.12.67v0q-17.18,2.59-35.61,4.37l-.08-.22-.29-.88A2.6,2.6,0,0,0,573.59,23a2.54,2.54,0,0,0-.5-.23,2.61,2.61,0,0,0-3.3,1.64l-.59,1.75L570,26a1,1,0,0,1,0,.17Q557.66,27.31,544.77,28q-5.58.3-11.23.51l-.4-1.19a2.59,2.59,0,0,0-2.58-1.76,2.62,2.62,0,0,0-2.87,1.74l-.48,1.43q-12.18.39-24.67.39c-2.14,0-4.27,0-6.4,0L490.9,29l0-.06-.73-2.19a2.59,2.59,0,0,0-1.7-1.65,2.52,2.52,0,0,0-.59-.3,2.62,2.62,0,0,0-3.31,1.65l-.77,2.31,1.55,0,0,.09c-12.89-.28-25.54-.86-37.86-1.72l-.18-.54-.77-2.31a3.07,3.07,0,0,0-5.55,0L440.44,26l1.19.11.21.63-5.4-.44q-17.82-1.53-34.58-3.84a133.64,133.64,0,0,0-6.58,42.2,133.7,133.7,0,0,0,6.58,42.21q11.31-1.56,23.13-2.76l.3.88.55,1.65a2.61,2.61,0,0,0,1.77,1.68,2.19,2.19,0,0,0,.44.2,2.62,2.62,0,0,0,3.3-1.65l.9-2.69-1.67.19-.26-.79c2-.19,4.07-.38,6.12-.55q14.81-1.27,30.28-2l.09.27.63,1.89a3.1,3.1,0,0,0,5.58.09l.78-2.34-1.57.07-.07-.21q11.83-.45,24-.55,3.19,0,6.4,0,3.38,0,6.72,0l.61,1.82a2.6,2.6,0,0,0,1.94,1.71.81.81,0,0,0,.21.1,2.6,2.6,0,0,0,3.3-1.65l.64-1.9c9.75.17,19.37.5,28.81,1,2.62.14,5.23.3,7.82.46v0l.59,1.75a2.61,2.61,0,0,0,1.43,1.55,2.72,2.72,0,0,0,.75.41,2.62,2.62,0,0,0,3.3-1.65l.53-1.57-1-.08v-.08q19.9,1.43,38.6,3.82l.17.52.63,1.86a2.59,2.59,0,0,0,1.77,1.68,2.13,2.13,0,0,0,.6.31h0a2.62,2.62,0,0,0,3.31-1.64l.4-1.21-.81-.13a3.11,3.11,0,0,0-.09-.6c11.76,1.61,23.1,3.49,33.93,5.63A130.82,130.82,0,0,0,645.33,64.7Z"/><path class="cls-4" d="M632.28,22.14q-.84-2.67-1.79-5.22l-2.11.44q-6,1.23-12.17,2.36l5.69,17,2.75,8.22,12.78,38.19a153.22,153.22,0,0,0,1.11-18.43A141.91,141.91,0,0,0,632.28,22.14Z"/><path class="cls-4" d="M419.64,88.17,406.12,47.78a155.48,155.48,0,0,0-.92,16.92,142.49,142.49,0,0,0,6.14,42.21l2.13-.31,5.78-.8,6-.77-2.9-8.64Z"/><path class="cls-4" d="M463.15,90.43,450,51.17,447.25,43l-3.48-10.41-2.14-6.39L440.44,26q-15-1.45-29.1-3.54a127.29,127.29,0,0,0-3.5,14L422.39,80l2.76,8.22,3.48,10.41,1.95,5.83,1.67-.19q5.63-.63,11.35-1.15,7.77-.72,15.73-1.25l5.63-.35,1.85-.1-.91-2.72Z"/><path class="cls-4" d="M506.26,91.34,491.65,47.7l-2.75-8.23-1.6-4.76-2-5.88-1.55,0q-13.14-.41-25.85-1.29c-1.8-.12-3.58-.26-5.37-.4s-3.5-.28-5.24-.43l2.69,8,2.76,8.23,13.14,39.25,2.75,8.22,1.59,4.77,2,5.91,1.57-.07q12.58-.57,25.52-.69l3.94,0h6l-.25-.73Z"/><path class="cls-4" d="M548.22,88.81,534,46.42l-2.75-8.22-.87-2.58L528.19,29a2,2,0,0,1-.05-.24l-.94,0q-10.83.35-21.91.35c-2,0-4,0-6,0l-1.43,0L492.41,29l-1.53,0,.77,2.29,2.75,8.22L509,83.12l2.75,8.22.87,2.58,2.15,6.43,1.19,0q14.25.22,28,1l.69,0,4.71.29,3.19.22L551,97Z"/><path class="cls-4" d="M589.06,82.94,577.39,48.07l-2.76-8.22-2.26-6.76-2.26-6.77A2.29,2.29,0,0,1,570,26l-.84.08q-12,1.15-24.5,1.88-2.28.13-4.59.24c-1.85.1-3.72.18-5.59.26l-1,0L534,30l2.75,8.22L551,80.58l2.75,8.23L556,95.56l2.16,6.45a1.65,1.65,0,0,1,.07.32l1,.08q11.52.91,22.6,2.21c1.77.2,3.54.42,5.29.64q5,.63,9.88,1.33l-5.16-15.43Z"/><path class="cls-4" d="M619.15,44.94l-5.94-17.72-2-5.94a2.25,2.25,0,0,1-.12-.67l-1.26.21q-11.93,2-24.53,3.55c-1.9.23-3.81.46-5.73.67-1.34.16-2.69.3-4,.44l2,5.81,2.75,8.22,11.67,34.87,2.75,8.23,5.94,17.72,2.14,6.4a2.65,2.65,0,0,1,.12.73l.81.13c9.25,1.44,18.21,3.07,26.81,4.9a123.88,123.88,0,0,0,5.15-18.27L621.9,53.16Z"/></g></g></svg>