<svg xmlns="http://www.w3.org/2000/svg" viewBox="0 0 643.25 207.35"><defs><style>.cls-1{fill:#381d2a;}.cls-2{fill:#b1740f;}.cls-3{fill:#ffd07b;}.cls-4{fill:#fee9e1;}.cls-5{fill:#293132;}.cls-6{fill:none;stroke:#fee9e1;stroke-linecap:round;stroke-miterlimit:10;stroke-width:1.5px;}</style></defs><title>ab-lute-icon</title><g id="Layer_2" data-name="Layer 2"><g id="Layer_1-2" data-name="Layer 1"><path class="cls-1" d="M627,147.11c-10.55,5.92-25.89,9.41-45,9.41h-45c-111.84,0-226.38-35-255.83-78.24-5.24-7.7-7.42-15.13-6.85-22.15-10.77,57.2,60.41,121.07,160.54,143.44,101.33,22.64,193.93-5.8,206.82-63.52a61.66,61.66,0,0,0,1.45-11.28C642.67,133.8,637,141.53,627,147.11Z"/><polygon class="cls-2" points="32.07 97.81 336.52 104.33 300.96 52.16 5.41 58.68 32.07 97.81"/><path class="cls-3" d="M533.21,9.42C514.57,3.49,494.48,0,475.41,0h-45C318.57,0,251.79,35,281.24,78.25s144,78.24,255.83,78.24h45c19.07,0,34.41-3.49,45-9.41,16.86-9.46,21.51-25.11,9.49-42.75L601,52.16C588.94,34.52,563,18.87,533.21,9.42Z"/><ellipse class="cls-2" cx="393.74" cy="78.25" rx="22.45" ry="43.57" transform="translate(180.58 418.41) rotate(-69.17)"/><polygon class="cls-1" points="556.43 110.62 584.23 123.89 522 32.6 512.3 45.87 556.43 110.62"/><path class="cls-4" d="M530.55,63.29H8.55a2,2,0,0,1-1.48-.69c-.26-.39,0-.7.53-.7h522a1.94,1.94,0,0,1,1.47.7C531.34,63,531.1,63.29,530.55,63.29Z"/><path class="cls-4" d="M534.81,69.55h-522a2,2,0,0,1-1.47-.69c-.26-.39,0-.7.53-.7h522a1.94,1.94,0,0,1,1.47.7C535.6,69.24,535.37,69.55,534.81,69.55Z"/><path class="cls-4" d="M539.08,75.81h-522a2,2,0,0,1-1.47-.69c-.26-.39,0-.7.52-.7h522a1.94,1.94,0,0,1,1.48.7C539.87,75.5,539.63,75.81,539.08,75.81Z"/><path class="cls-4" d="M543.35,82.07h-522a2,2,0,0,1-1.48-.69c-.26-.39,0-.7.53-.7h522a1.94,1.94,0,0,1,1.47.7C544.14,81.76,543.9,82.07,543.35,82.07Z"/><path class="cls-4" d="M547.61,88.33h-522a1.94,1.94,0,0,1-1.47-.7c-.26-.38,0-.69.53-.69h522a2,2,0,0,1,1.47.69C548.4,88,548.17,88.33,547.61,88.33Z"/><path class="cls-4" d="M551.88,94.59h-522a1.94,1.94,0,0,1-1.47-.7c-.27-.38,0-.69.52-.69h522a2,2,0,0,1,1.48.69C552.67,94.28,552.43,94.59,551.88,94.59Z"/><path class="cls-4" d="M529.68,62.42a2.11,2.11,0,0,1-1.3-.5c-.41-.37-.37-.75.09-.86l4-1a2,2,0,0,1,1.56.48c.41.36.37.75-.08.86l-4,.94A1.09,1.09,0,0,1,529.68,62.42Z"/><path class="cls-4" d="M533.52,68.45a2,2,0,0,1-1.42-.62c-.32-.38-.15-.73.37-.77l4.89-.37a2,2,0,0,1,1.52.62c.32.38.16.72-.37.76l-4.89.38Z"/><path class="cls-4" d="M538.41,75.24a2.06,2.06,0,0,1-1.38-.58c-.35-.38-.22-.74.28-.8l4.49-.57a2,2,0,0,1,1.54.57c.35.38.23.74-.27.8l-4.5.57Z"/><path class="cls-4" d="M547.55,81.08H542.4a2,2,0,0,1-1.48-.69c-.26-.39,0-.7.53-.7h5.15a1.94,1.94,0,0,1,1.47.7C548.34,80.77,548.1,81.08,547.55,81.08Z"/><path class="cls-4" d="M546,87.11a2,2,0,0,1-1.41-.61c-.33-.38-.17-.73.35-.77l4.35-.38a2,2,0,0,1,1.52.61c.33.38.17.73-.35.77l-4.35.38Z"/><path class="cls-4" d="M550.86,93.9a2.09,2.09,0,0,1-1.35-.55c-.37-.38-.28-.75.21-.83l4.64-.75a2,2,0,0,1,1.55.54c.37.37.27.74-.22.82l-4.63.75Z"/><path class="cls-4" d="M534.77,63.93h-.07l-4.19-.19a1.91,1.91,0,0,1-1.43-.74c-.23-.39,0-.68.62-.65l4.19.19a1.92,1.92,0,0,1,1.44.74C535.54,63.65,535.29,63.93,534.77,63.93Z"/><path class="cls-4" d="M539,70.53l-.21,0L534.34,70a1.8,1.8,0,0,1-1.34-.82c-.15-.38.2-.62.8-.55l4.46.57a1.74,1.74,0,0,1,1.34.82C539.73,70.3,539.47,70.53,539,70.53Z"/><path class="cls-4" d="M543.64,76.93a1.67,1.67,0,0,1-.43-.05l-4.56-1.12c-.61-.16-1.12-.56-1.15-.92s.45-.52,1.06-.36l4.56,1.12c.61.15,1.12.56,1.15.91S544,76.93,543.64,76.93Z"/><path class="cls-4" d="M548.53,83.72a1.42,1.42,0,0,1-.34,0l-5.65-1.13a1.58,1.58,0,0,1-1.23-.88c-.07-.36.36-.56,1-.44l5.65,1.13a1.62,1.62,0,0,1,1.23.88C549.22,83.54,549,83.72,548.53,83.72Z"/><path class="cls-4" d="M552.77,89.94a1.39,1.39,0,0,1-.39,0l-5.78-1.32c-.61-.14-1.14-.54-1.18-.9s.41-.53,1-.39l5.78,1.32c.61.14,1.14.54,1.18.9S553.17,89.94,552.77,89.94Z"/><path class="cls-4" d="M556.36,95.6h-4.61a2,2,0,0,1-1.47-.7c-.27-.38,0-.7.52-.7h4.61a2,2,0,0,1,1.47.7C557.14,95.28,556.91,95.6,556.36,95.6Z"/><path class="cls-5" d="M2.2,62.91.4,60.26A77.16,77.16,0,0,0,0,68.67c0,3.25.14,6.53.4,9.59l1.8,2.65c1-2.52,2.66-2.69,4.53.07.06.08.11.16.16.24q0-1.14,0-2.37c0-.81,0-1.63,0-2.45,0-.07-.1-.15-.16-.22C4.86,73.42,3.2,68.37,2.2,62.91Z"/><path class="cls-5" d="M3.87,92.36l-1.8-2.65a77.49,77.49,0,0,0-.4,8.42c0,3.25.14,6.52.4,9.58l1.8,2.65c1-2.51,2.66-2.68,4.53.08a2,2,0,0,1,.16.24q0-1.16,0-2.37c0-.82,0-1.63,0-2.45l-.16-.23C6.53,102.87,4.87,97.83,3.87,92.36Z"/><path class="cls-5" d="M5.54,121.82l-1.8-2.65a77.49,77.49,0,0,0-.4,8.42c0,3.25.14,6.52.4,9.58l1.8,2.65c1-2.52,2.66-2.69,4.54.07l.15.24c0-.76,0-1.55,0-2.36s0-1.64,0-2.45l-.15-.23C8.2,132.33,6.54,127.28,5.54,121.82Z"/><path class="cls-5" d="M34.43,110.32,36.24,113c.25,3.06.39,6.33.39,9.58a80.41,80.41,0,0,1-.39,8.42l-1.81-2.65c-1-5.46-2.65-10.51-4.53-13.27l-.16-.23c0-.81,0-1.63,0-2.45s0-1.6,0-2.36l.16.24C31.78,113,33.43,112.84,34.43,110.32Z"/><path class="cls-5" d="M32.76,134.86l1.81,2.65c.25,3.06.39,6.34.39,9.59a80.21,80.21,0,0,1-.39,8.41l-1.81-2.65c-1-5.46-2.65-10.51-4.53-13.27-.05-.08-.11-.15-.16-.22,0-.82,0-1.64,0-2.45s0-1.61,0-2.37l.16.24C30.11,137.55,31.76,137.38,32.76,134.86Z"/><path class="cls-5" d="M31.09,159.4l1.81,2.65c.25,3.07.39,6.34.39,9.59a80.07,80.07,0,0,1-.39,8.41l-1.81-2.65c-1-5.46-2.66-10.5-4.53-13.26l-.16-.23c0-.82,0-1.63,0-2.45s0-1.61,0-2.37l.16.24C28.43,162.09,30.09,161.92,31.09,159.4Z"/><polygon class="cls-2" points="27.3 181.08 9.99 155.61 5.38 58.84 31.9 97.84 27.3 181.08"/><line class="cls-6" x1="7.86" y1="62.63" x2="6.39" y2="78.36"/><line class="cls-6" x1="12.5" y1="68.94" x2="7.65" y2="106.94"/><line class="cls-6" x1="16.61" y1="75.1" x2="9.06" y2="135.9"/><line class="cls-6" x1="20.62" y1="81.32" x2="28.25" y2="164.1"/><line class="cls-6" x1="24.87" y1="87.71" x2="29.7" y2="139.44"/><line class="cls-6" x1="29.29" y1="94.05" x2="31.06" y2="114.35"/></g></g></svg>