<svg xmlns="http://www.w3.org/2000/svg" viewBox="0 0 180 162"><title>ab-skull-icon</title><g id="Layer_2" data-name="Layer 2"><g id="Layer_1-2" data-name="Layer 1"><rect x="18" y="18" width="18" height="18"/><polygon points="72 18 90 18 108 18 126 18 144 18 144 0 126 0 108 0 90 0 72 0 54 0 36 0 36 18 54 18 72 18"/><polygon points="72 81 72 63 54 63 45 63 45 72 45 81 54 81 72 81"/><rect x="144" y="18" width="18" height="18"/><polygon points="162 36 162 54 162 72 162 90 144 90 144 99 135 99 126 99 126 108 126 126 126 135 108 135 90 135 72 135 54 135 54 126 54 108 45 108 45 99 45 90 36 90 18 90 18 72 18 54 18 36 0 36 0 54 0 72 0 90 9 90 9 99 18 99 18 108 27 108 27 117 36 117 36 126 36 135 36 153 36 162 45 162 45 153 54 153 54 162 63 162 63 153 72 153 72 162 81 162 81 153 90 153 108 153 126 153 126 162 135 162 135 153 144 153 144 135 144 126 144 117 153 117 153 108 162 108 162 99 171 99 171 90 180 90 180 72 180 54 180 36 162 36"/><polygon points="99 90 90 90 90 81 81 81 81 90 81 108 99 108 99 90"/><polygon points="135 81 135 72 135 63 126 63 108 63 108 81 126 81 135 81"/></g></g></svg>