<svg xmlns="http://www.w3.org/2000/svg" viewBox="0 0 566.47 622.44"><defs><style>.cls-1{fill:#ffd07b;}.cls-2{fill:#b1740f;}.cls-3{fill:#381d2a;}.cls-4{fill:#fafafa;}.cls-5{fill:#293132;}</style></defs><title>ab-tavern-icon_1</title><g id="Layer_2" data-name="Layer 2"><g id="Layer_2-2" data-name="Layer 2"><path class="cls-1" d="M511.42,266h0a1.79,1.79,0,0,1-.67-3.46,209.16,209.16,0,0,0-47-94.2,1.79,1.79,0,0,1-2.33-2.63,210,210,0,0,0-87.71-58.2,1.79,1.79,0,0,1-3.37-.84c0-.09,0-.18,0-.28a210.77,210.77,0,0,0-105-6.46s0,0,0,.08a1.79,1.79,0,0,1-3.48.61,209.35,209.35,0,0,0-94.23,47,1.83,1.83,0,0,1,.25.89A1.79,1.79,0,0,1,165,149.9a210.24,210.24,0,0,0-58.2,87.74,1.79,1.79,0,0,1-.93,3.32l-.18,0A210.85,210.85,0,0,0,99.22,346h0a1.8,1.8,0,0,1,.68,3.46,209.23,209.23,0,0,0,47,94.21,1.71,1.71,0,0,1,.9-.25,1.79,1.79,0,0,1,1.79,1.79,1.82,1.82,0,0,1-.36,1.08,210.17,210.17,0,0,0,87.74,58.21,1.79,1.79,0,0,1,3.34,1.11,210.89,210.89,0,0,0,105.08,6.46,1.79,1.79,0,0,1,3.43-.68,209.26,209.26,0,0,0,94.23-47,1.87,1.87,0,0,1-.24-.88,1.8,1.8,0,0,1,1.8-1.79,1.77,1.77,0,0,1,1.06.35,210.15,210.15,0,0,0,58.2-87.75,1.79,1.79,0,0,1,.94-3.32H505A210.81,210.81,0,0,0,511.42,266Z"/><path class="cls-2" d="M457.53,306a153.34,153.34,0,0,0-2.68-28.54L511.42,266v0h0a1.8,1.8,0,0,1-.68-3.46h0L454.15,274a151.78,151.78,0,0,0-33.61-67.46l43.24-38.22h0a1.74,1.74,0,0,1-.9.25,1.79,1.79,0,0,1-1.43-2.88h0L418.19,203.9a152.36,152.36,0,0,0-62.81-41.66l18.34-54.74h0a1.79,1.79,0,0,1-3.37-.84c0-.09,0-.18,0-.28h0L352,161.12a153,153,0,0,0-75.24-4.63L265.33,100a1.79,1.79,0,0,1-3.48.6h0l11.48,56.58a151.78,151.78,0,0,0-67.46,33.61l-38.22-43.24h0a1.77,1.77,0,0,1,.25.89A1.79,1.79,0,0,1,165,149.9h0l38.22,43.24A152.46,152.46,0,0,0,161.54,256L106.8,237.61v0a1.79,1.79,0,0,1-.93,3.33l-.18,0v0l54.74,18.35a153,153,0,0,0-4.63,75.23L99.22,346h0a1.8,1.8,0,0,1,.68,3.46h0L156.49,338a151.83,151.83,0,0,0,33.61,67.46l-43.24,38.22h0a1.75,1.75,0,0,1,.91-.25,1.79,1.79,0,0,1,1.42,2.88l0,0,43.24-38.22a152.46,152.46,0,0,0,62.81,41.66l-18.35,54.74h0a1.79,1.79,0,0,1,3.36.87,1.94,1.94,0,0,1,0,.24l18.34-54.73a153,153,0,0,0,75.23,4.63l11.48,56.57h0a1.79,1.79,0,0,1,3.43-.68h0l-11.48-56.57a151.83,151.83,0,0,0,67.46-33.61L443,464.48h0a1.79,1.79,0,0,1,2.62-2.33h0l-38.22-43.24a152.46,152.46,0,0,0,41.66-62.81l54.74,18.34v0a1.78,1.78,0,0,1-.87-1.52,1.8,1.8,0,0,1,1.8-1.8H505v0l-54.74-18.34A152.1,152.1,0,0,0,457.53,306ZM435.76,349.5a1.81,1.81,0,0,0-1.56.86c-.07.22-.14.44-.22.65l0,.09A136.39,136.39,0,0,1,397,406.83l-.13.12-.17.15a1.76,1.76,0,0,0-.28,1.86,1.8,1.8,0,0,0-1.82,0l-.39.34-.12.1a135.89,135.89,0,0,1-59.55,29.75l-.4.09-.41.08a1.79,1.79,0,0,0-1,1.41,1.8,1.8,0,0,0-1.53-.9l-.53.11-.21,0a136.76,136.76,0,0,1-66.2-4l-.58-.18-.41-.14a1.8,1.8,0,0,0-1.45.73,1.82,1.82,0,0,0-.78-1.47l-.72-.25-.18-.06A136.52,136.52,0,0,1,205,398.2l-.57-.61,0,0a1.81,1.81,0,0,0-1.69-.13,1.81,1.81,0,0,0,0-1.79l-.47-.53-.15-.17a135.86,135.86,0,0,1-29.84-59.69l-.09-.38-.09-.46a1.81,1.81,0,0,0-1.41-1,1.82,1.82,0,0,0,.9-1.55c0-.16-.07-.32-.1-.48s0-.14,0-.21a136.76,136.76,0,0,1,4-66.23l.17-.56.08-.24a1.8,1.8,0,0,0-.72-1.58,1.79,1.79,0,0,0,1.55-.9l.21-.63v0a136.38,136.38,0,0,1,36.28-55.15l.29-.28a1.77,1.77,0,0,0,.26-1.83,1.8,1.8,0,0,0,1.73,0l.67-.59.52-.46a135.81,135.81,0,0,1,60.07-29.93l.25-.05.25,0a1.78,1.78,0,0,0,1.28-1.5,1.8,1.8,0,0,0,1.65.91h0l.36-.06a136.62,136.62,0,0,1,66.09,4l.55.17.35.12a1.83,1.83,0,0,0,1.52-.73,1.8,1.8,0,0,0,.85,1.52l.64.21.12.05a136.48,136.48,0,0,1,55.1,36.28l.55.59a1.82,1.82,0,0,0,1.72.16,1.8,1.8,0,0,0,0,1.77l.51.58.29.33a135.83,135.83,0,0,1,29.94,60.07v0c.06.27.11.55.16.82a1.81,1.81,0,0,0,1.42,1,1.78,1.78,0,0,0-.9,1.53s0,0,0,.06c0,.2.07.41.11.61A137.37,137.37,0,0,1,441.6,306a135.93,135.93,0,0,1-6.41,41.36,2.76,2.76,0,0,1-.08.27l0,.1A1.79,1.79,0,0,0,435.76,349.5Z"/><path class="cls-3" d="M305.32,116.94c-104.43,0-189.08,84.65-189.08,189.08S200.89,495.1,305.32,495.1,494.4,410.45,494.4,306,409.75,116.94,305.32,116.94Zm0,352.24A163.17,163.17,0,1,1,468.48,306,163.17,163.17,0,0,1,305.32,469.18Z"/><path class="cls-2" d="M456.91,515.88a244.91,244.91,0,0,1-4.59-46.51,34.44,34.44,0,0,0-44-1.47,190.47,190.47,0,0,1-205.93,0,34.47,34.47,0,0,0-44,1.47,245.73,245.73,0,0,1-4.58,46.51,243,243,0,0,1-50,106.56h58.25a190.38,190.38,0,0,1,290.84,0H507A243,243,0,0,1,456.91,515.88Z"/><circle class="cls-3" cx="196.47" cy="536.76" r="20.8"/><circle class="cls-3" cx="414.17" cy="536.76" r="20.8"/><path class="cls-4" d="M99.34,99.16l27.92-44.27,39-1.22,25.4,36.75,25.44-1.1-20.82,31.57-21.2-2.67-12,26.46-30.44-.36-12.36-16.66,11-14.75Zm37.65,7,15.57-19.41-4.15-5.6-29.17,3Zm22.1-10.61-14.41,18.75L171,113Z"/><path class="cls-4" d="M270.32,71.53l-8.66-43-17.1-7.95L270.94,0,290.3,9.85l9.81,50.86L258.25,97.3l-40.36-9.7-8.87-48-21.81-7L218.3,11l19.36,9.86,8.43,46.74Z"/><path class="cls-4" d="M382.08,8.1l21.19,29.06-3.33,16.61-47.86.09-1.43,6.82,41.69,29.15-44.15,7.49L315.33,69.7,327,21.76ZM354.5,43.17l21.91-2.5-16.91-18Z"/><path class="cls-4" d="M456.37,73.08l-20.45,31.45L446.53,126l-37.07-7.51-7-20.32,27.4-42.77-8.78-21.84L455.89,39l4.87,27.42,28-7.05L505,83.76,470.78,95.33Z"/><path class="cls-4" d="M530.27,135.12l-35.38,24.14-.59,18.85-29.19-16.25,1.4-21.44,41.82-28.85L508.68,88l30,18.53-1.76,24.13,29.45,15.46.12,30.3-40.75,26.88,1.4,21.71-31.19-19.11,1.32-21.58L535,159.19Z"/><path class="cls-4" d="M35.16,146.52,9.06,182.65,0,150.12,68.94,54.93l9.14,33.74-19.35,25.7,67,49.23,25.76-15.79-5.82,46.47L117.6,207.12Z"/><path class="cls-5" d="M326.84,386.82V376.5a103.14,103.14,0,0,0-43,0v10.32c9.54,5.72,15.78,15.21,15.78,26,0,.3,0,.61,0,.91q2.83.15,5.76.15t5.76-.15c0-.3,0-.61,0-.91C311.06,402,317.3,392.54,326.84,386.82Z"/><rect class="cls-5" x="300.48" y="438.67" width="9.69" height="21.95"/><circle class="cls-2" cx="305.32" cy="426.2" r="14.53"/></g></g></svg>