<svg xmlns="http://www.w3.org/2000/svg" viewBox="0 0 571.21 623.68"><defs><style>.cls-1{fill:#ffd07b;}.cls-2{fill:#b1740f;}.cls-3{fill:#381d2a;}.cls-4{fill:#293132;}.cls-5{fill:#1d8a99;}</style></defs><title>ab-tavern-icon</title><g id="Layer_2" data-name="Layer 2"><g id="Layer_2-2" data-name="Layer 2"><path class="cls-1" d="M503.61,267.23h0a1.8,1.8,0,0,1-.67-3.46,209.24,209.24,0,0,0-47-94.21,1.78,1.78,0,0,1-2.69-1.55,1.76,1.76,0,0,1,.37-1.08,210.16,210.16,0,0,0-87.72-58.19,1.79,1.79,0,0,1-3.37-.84,2.46,2.46,0,0,1,0-.28,211,211,0,0,0-105-6.47s0,.06,0,.09a1.79,1.79,0,0,1-3.48.61,209.2,209.2,0,0,0-94.23,47,1.77,1.77,0,0,1,.25.89,1.8,1.8,0,0,1-1.8,1.79,1.75,1.75,0,0,1-1.07-.36A210.19,210.19,0,0,0,99,238.87a1.8,1.8,0,0,1-.94,3.33l-.17,0a211,211,0,0,0-6.48,105.09h0a1.8,1.8,0,0,1,.69,3.46,209.21,209.21,0,0,0,47,94.21,1.79,1.79,0,0,1,2.7,1.55,1.76,1.76,0,0,1-.37,1.08,210.05,210.05,0,0,0,87.74,58.2,1.79,1.79,0,0,1,3.36.88,1.94,1.94,0,0,1,0,.24,210.89,210.89,0,0,0,105.08,6.46,1.79,1.79,0,0,1,3.43-.69,209.25,209.25,0,0,0,94.23-47,1.89,1.89,0,0,1-.23-.88,1.79,1.79,0,0,1,1.79-1.8,1.75,1.75,0,0,1,1.06.35A210,210,0,0,0,496,375.62a1.77,1.77,0,0,1-.85-1.52,1.8,1.8,0,0,1,1.79-1.8l.17,0a210.81,210.81,0,0,0,6.47-105.09Z"/><path class="cls-2" d="M449.72,307.25A152.39,152.39,0,0,0,447,278.72l56.57-11.48h0a1.8,1.8,0,0,1-.67-3.46h0l-56.58,11.48a151.73,151.73,0,0,0-33.61-67.46L456,169.57v0a1.72,1.72,0,0,1-.9.26,1.8,1.8,0,0,1-1.8-1.8,1.76,1.76,0,0,1,.37-1.08h0l-43.24,38.21a152.46,152.46,0,0,0-62.81-41.66l18.35-54.73h0a1.79,1.79,0,0,1-3.37-.84,2.46,2.46,0,0,1,0-.28h0l-18.35,54.73A153,153,0,0,0,269,157.72l-11.46-56.47a1.8,1.8,0,0,1-1.8,1.78,1.78,1.78,0,0,1-1.68-1.18h0l11.48,56.57A151.74,151.74,0,0,0,198,192l-38.22-43.25h0a1.84,1.84,0,0,1,.25.9,1.8,1.8,0,0,1-1.8,1.79,1.75,1.75,0,0,1-1.07-.36h0l38.21,43.24a152.43,152.43,0,0,0-41.66,62.82L99,238.85v0a1.78,1.78,0,0,1,.87,1.53,1.81,1.81,0,0,1-1.8,1.8l-.18,0v0l54.74,18.34A153,153,0,0,0,148,335.79L91.41,347.27h0a1.8,1.8,0,0,1,.69,3.46h0l56.57-11.48a151.73,151.73,0,0,0,33.61,67.46l-43.24,38.22h0a1.78,1.78,0,0,1,.91-.26,1.81,1.81,0,0,1,1.8,1.8,1.77,1.77,0,0,1-.38,1.08l0,0,43.24-38.22A152.36,152.36,0,0,0,247.45,451l-18.34,54.74h0a1.79,1.79,0,0,1,3.36.87,1.64,1.64,0,0,1,0,.23l18.34-54.72a152.8,152.8,0,0,0,75.24,4.62l11.47,56.57h0a1.8,1.8,0,0,1,1.8-1.75,1.77,1.77,0,0,1,1.63,1.06h0l-11.48-56.58A151.68,151.68,0,0,0,397,422.47l38.22,43.25,0,0a1.76,1.76,0,0,1-.24-.88,1.8,1.8,0,0,1,2.86-1.45h0l-38.22-43.25a152.36,152.36,0,0,0,41.66-62.81L496,375.66v0a1.8,1.8,0,0,1,.93-3.33l.17,0v0L442.41,354A152,152,0,0,0,449.72,307.25ZM428,350.73a1.82,1.82,0,0,0-1.56.87l-.21.65,0,.08a136.51,136.51,0,0,1-36.94,55.73l-.13.12-.17.15a1.79,1.79,0,0,0-.28,1.86,1.82,1.82,0,0,0-1.82,0l-.39.34-.12.1a135.87,135.87,0,0,1-59.55,29.74l-.4.09-.41.09a1.78,1.78,0,0,0-1,1.41,1.77,1.77,0,0,0-1.52-.9l-.53.1-.22,0a136.85,136.85,0,0,1-66.19-4l-.59-.19-.41-.13a1.78,1.78,0,0,0-1.45.73,1.79,1.79,0,0,0-.78-1.48l-.72-.24-.18-.07a136.42,136.42,0,0,1-55.19-36.42l-.57-.61,0,0a1.81,1.81,0,0,0-1.69-.13,1.81,1.81,0,0,0,0-1.79c-.15-.18-.31-.35-.47-.53l-.14-.16a135.77,135.77,0,0,1-29.85-59.69l-.09-.39-.09-.45a1.3,1.3,0,0,1-.51-2.54c0-.16-.07-.32-.1-.48a1.55,1.55,0,0,0,0-.21,136.8,136.8,0,0,1,4-66.24c.06-.18.11-.37.17-.55a1.83,1.83,0,0,0,.08-.25,1.78,1.78,0,0,0-.72-1.57,1.78,1.78,0,0,0,1.55-.9c.08-.22.14-.43.22-.64v0a136.39,136.39,0,0,1,36.27-55.16l.3-.27a1.83,1.83,0,0,0,.26-1.84,1.81,1.81,0,0,0,1.72.06c.22-.2.44-.4.67-.59l.52-.46A135.83,135.83,0,0,1,268.67,174l.25,0,.25-.05a1.79,1.79,0,0,0,1.29-1.5,1.8,1.8,0,0,0,1.64.91h0l.35-.06a137,137,0,0,1,66.1,4l.55.17.35.12a1.79,1.79,0,0,0,1.51-.73,1.76,1.76,0,0,0,.86,1.52l.63.22.12,0a136.33,136.33,0,0,1,55.1,36.29c.18.19.37.38.55.58a1.77,1.77,0,0,0,1.72.16,1.8,1.8,0,0,0,0,1.77l.51.58.3.33a135.85,135.85,0,0,1,29.93,60.08v0c.06.27.11.55.16.82a1.83,1.83,0,0,0,1.42,1,1.8,1.8,0,0,0-.9,1.52s0,.05,0,.07c0,.2.07.4.11.6a136.85,136.85,0,0,1-4.14,66.13l-.09.27,0,.09A1.8,1.8,0,0,0,428,350.73Z"/><path class="cls-3" d="M297.51,118.17c-104.43,0-189.08,84.66-189.08,189.08s84.65,189.08,189.08,189.08,189.08-84.65,189.08-189.08S401.94,118.17,297.51,118.17Zm0,352.25A163.17,163.17,0,1,1,460.68,307.25,163.16,163.16,0,0,1,297.51,470.42Z"/><path class="cls-2" d="M449.1,517.11a245.65,245.65,0,0,1-4.58-46.51,35.11,35.11,0,0,0-5.84-4.19,34.42,34.42,0,0,0-38.2,2.72,190.41,190.41,0,0,1-205.93,0,34.44,34.44,0,0,0-44,1.47,244.83,244.83,0,0,1-4.59,46.51,243,243,0,0,1-50,106.57h58.25a190.39,190.39,0,0,1,290.85,0h54.16A243,243,0,0,1,449.1,517.11Z"/><circle class="cls-3" cx="188.66" cy="537.99" r="20.8"/><circle class="cls-3" cx="406.36" cy="537.99" r="20.8"/><path class="cls-4" d="M319,388.05V377.73a103.14,103.14,0,0,0-43,0v10.32c9.54,5.73,15.78,15.22,15.78,26,0,.31,0,.61,0,.91,1.89.1,3.81.16,5.76.16s3.87-.06,5.76-.16c0-.3,0-.6,0-.91C303.25,403.27,309.49,393.78,319,388.05Z"/><rect class="cls-4" x="292.67" y="439.91" width="9.69" height="21.95"/><circle class="cls-2" cx="297.51" cy="427.44" r="14.53"/><path class="cls-5" d="M186.78,59.68a85.8,85.8,0,0,0-6.7-7.92,26.58,26.58,0,0,0-6.53-5.07,14.33,14.33,0,0,0-6.71-1.76,16.89,16.89,0,0,0-7.51,2,18.25,18.25,0,0,0-6,4.53,24.23,24.23,0,0,0-3.69,5.64A19.32,19.32,0,0,0,148,62.33a8.62,8.62,0,0,0,0,3.44,1.48,1.48,0,0,1-.83,2,7.23,7.23,0,0,1-5,.44,5.48,5.48,0,0,1-3.87-2.94,5.19,5.19,0,0,1-.63-2.12q2.72-3.95,6.88-9t8.92-10A120.12,120.12,0,0,1,163.19,35a49.11,49.11,0,0,1,9.58-6.4q6.82-3.36,11.45-3.19a13.87,13.87,0,0,1,8.16,2.86,25.67,25.67,0,0,1,6.31,7.3c1.83,3.07,3.77,6.4,5.79,10Q209,53.61,213.64,61a95.49,95.49,0,0,0,9.14,12.47A35.2,35.2,0,0,0,231.63,81q4.32,2.42,8.06.59A15,15,0,0,0,243.28,79a36.72,36.72,0,0,0,3.31-3.54q1.51-1.84,2.62-3.5c.73-1.1,1.21-1.84,1.43-2.22a1.87,1.87,0,0,1,2.51.59,3.45,3.45,0,0,1,.39,1.62,23.15,23.15,0,0,1-1.64,2.83c-1,1.56-2.22,3.44-3.69,5.64s-3.13,4.59-5,7.17-3.68,5.07-5.53,7.45a82,82,0,0,1-5.32,6.24,16.86,16.86,0,0,1-4.32,3.53,5.35,5.35,0,0,1-4.5.09,16.65,16.65,0,0,1-4.92-3.24A46.12,46.12,0,0,1,213.48,96q-2.65-3.35-5.29-7.1-1.74,3.89-4.66,9.45a99.85,99.85,0,0,1-6.85,11.13,89.52,89.52,0,0,1-8.56,10.34,35.19,35.19,0,0,1-9.82,7.34,21.75,21.75,0,0,1-8.33,2.36,17.86,17.86,0,0,1-7.24-1,16.06,16.06,0,0,1-5.85-3.69,20.76,20.76,0,0,1-4.12-5.75,13.21,13.21,0,0,1-1-10.09q1.55-4.89,6.46-11.74,2.3-3.15,6.51-8.54t8.64-11q4.41-5.6,8.14-10.55T186.78,59.68Zm17.08,22.91c-1.23-1.69-2.54-3.53-3.93-5.55s-2.72-3.91-4-5.7-2.41-3.33-3.37-4.61-1.6-2.1-1.92-2.48q-2.13,2.25-4.75,5.15c-1.74,1.93-3.45,3.94-5.11,6s-3.22,4.14-4.67,6.12a61.76,61.76,0,0,0-3.48,5.24,27,27,0,0,0-3.31,7.68,10.12,10.12,0,0,0,.92,6.81,14.66,14.66,0,0,0,6.83,6.94q4.53,2.23,10.38-.64a22.09,22.09,0,0,0,5.87-4.29,52.15,52.15,0,0,0,4.91-5.63,51,51,0,0,0,3.53-5.37,25.93,25.93,0,0,0,1.81-3.71c.44-1.29.76-2.36,1-3.19A3.73,3.73,0,0,0,203.86,82.59Z"/><path class="cls-5" d="M283.72,72.86q.64-1.14,2.46-4.64c1.22-2.33,2.57-5.2,4.07-8.58s3-7,4.61-11,3-7.89,4.27-11.87,2.28-7.71,3.05-11.23a32.17,32.17,0,0,0,.84-9.06A12,12,0,0,0,302,11.94a5.75,5.75,0,0,0-2.28-2.46,8.85,8.85,0,0,0-3.26-1,19.37,19.37,0,0,0-3.82-.07,12.46,12.46,0,0,0-2.16.35,14.21,14.21,0,0,0-2.12.7,1.54,1.54,0,0,1-1.74-.14c-.45-.38-.69-.7-.71-.94,0-.48.73-1.15,2.3-2a34.82,34.82,0,0,1,6.54-2.5q4.17-1.23,9.63-2.29A100.5,100.5,0,0,1,315.76.07q8.49-.66,8.92,4.95Q324.88,7.56,322,14t-7.39,15q-4.51,8.63-10,18.31T293.74,66q-5.31,9-9.72,16.65t-6.64,11.78c-.32.51-1.63.85-3.92,1a2.8,2.8,0,0,1-1.93-.31,4.13,4.13,0,0,1-.93-1.47c-1.34-3.29-2.87-6.93-4.56-10.92s-3.5-8-5.39-12.13-3.8-8.16-5.75-12.19-3.84-7.79-5.68-11.28q-7.49-14.7-12.38-20.41t-8.69-5.42a6,6,0,0,0-2.05.52c-.64.29-1.25.58-1.84.87-.24,0-.59-.23-1-.74s-.59-.89-.36-1.15,1.19-1,3.25-2.61,4.46-3.41,7.22-5.38,5.55-3.78,8.4-5.45a17.35,17.35,0,0,1,7-2.72q4.16-.31,8.17,7.1t9.76,20.6Z"/><path class="cls-5" d="M409.44,94.29c-1.68,1-4.21,2.35-7.59,4a77.17,77.17,0,0,1-11.79,4.48,68.49,68.49,0,0,1-14.45,2.56,43.44,43.44,0,0,1-15.54-1.72,47.51,47.51,0,0,1-13.28-6.25,38.11,38.11,0,0,1-10.23-10.18,33.17,33.17,0,0,1-5.3-13.83A40.1,40.1,0,0,1,332.86,56a78.29,78.29,0,0,1,5-13.17,52.45,52.45,0,0,1,5.68-9.1,37.35,37.35,0,0,1,6.06-6.16,56.62,56.62,0,0,1,6-4.17,39.6,39.6,0,0,1,8.51-3.93,69.23,69.23,0,0,1,10.09-2.52A52.74,52.74,0,0,1,385,16.22,43.49,43.49,0,0,1,395.75,18q9.39,2.75,13.78,7.44t2.75,10.25a11.35,11.35,0,0,1-4,5.82,40.32,40.32,0,0,0,4.94-.44q3.06-.42,6.22-.92t5.64-.89a19.85,19.85,0,0,0,3.33-.73.88.88,0,0,1,.86,0,.57.57,0,0,1,.26.74,7.6,7.6,0,0,1-2,3.48,7.75,7.75,0,0,1-2.77,1.74c-2.2.62-5.29,1.28-9.28,2s-8.38,1.42-13.17,2.09-9.73,1.3-14.81,1.89-9.87,1.16-14.38,1.73-8.44,1.09-11.79,1.55-5.63.84-6.84,1.11a27.45,27.45,0,0,0-.89,11.73,28.69,28.69,0,0,0,3.9,10.87,31.43,31.43,0,0,0,8.24,8.93,37.75,37.75,0,0,0,12.14,5.92,47.42,47.42,0,0,0,11.69,2,50.94,50.94,0,0,0,9.39-.46,50.24,50.24,0,0,0,6.34-1.35,15.91,15.91,0,0,1,2.55-.67,2.26,2.26,0,0,1,1.22,1A1.81,1.81,0,0,1,409.44,94.29ZM356,49.74c2.17-.12,4.65-.3,7.43-.56s5.53-.61,8.25-1.08,5.21-.92,7.49-1.39a32.84,32.84,0,0,0,5.34-1.46q3.78-1.34,5.37-6.73a13.79,13.79,0,0,0,.49-4.58,13,13,0,0,0-1.15-4.77,12.7,12.7,0,0,0-3-4.08,11.78,11.78,0,0,0-4.71-2.61,10.78,10.78,0,0,0-5.7.13,17.29,17.29,0,0,0-6.8,3.86,36.41,36.41,0,0,0-7,8.71A61.25,61.25,0,0,0,356,49.74Z"/><path class="cls-5" d="M507.24,98.31c-1.72.12-3.78.32-6.21.59s-4.88.46-7.38.54a44.55,44.55,0,0,1-7.2-.35A12.66,12.66,0,0,1,480.63,97a8.75,8.75,0,0,1-3-3.59,32.73,32.73,0,0,1-1.56-4.22c-.41-1.4-.83-2.73-1.26-4a5.79,5.79,0,0,0-2.12-3,10.38,10.38,0,0,0-9-1.53,31,31,0,0,0-10.32,5.12,72.26,72.26,0,0,0-10.28,9.15,102.5,102.5,0,0,0-8.89,10.79,74.32,74.32,0,0,0-4.94,7.72,20.85,20.85,0,0,0-2.14,5.37,5.13,5.13,0,0,0,.36,3.7,8.74,8.74,0,0,0,2.61,2.75,19.87,19.87,0,0,0,4.56,2.34c.36.12.44.47.24,1.07a5.31,5.31,0,0,1-.62,1.34,1.19,1.19,0,0,1-.91.35,1.86,1.86,0,0,1-.86-.05c-2.79-.66-5.69-1.27-8.69-1.85s-5.48-1-7.45-1.4c-1.8-.39-3.9-.93-6.31-1.6a18.46,18.46,0,0,1-5.68-2.49,11,11,0,0,1-3.39-3.52c-.69-1.23-.85-2.08-.5-2.58a2.94,2.94,0,0,1,1.31-1.06,8.69,8.69,0,0,0,2.24-1.75c1.24-1.33,2.71-2.92,4.39-4.77s3.49-3.86,5.41-6,3.86-4.49,5.79-6.89,3.77-4.84,5.52-7.3q5.88-8.28,9.46-14.4A44.47,44.47,0,0,0,439.33,64a12.55,12.55,0,0,0,0-7.67,12.51,12.51,0,0,0-4.74-5.69c-.49-.36-.93-.67-1.33-1A5.84,5.84,0,0,0,432,49a1,1,0,0,1-.26-1.52,1.75,1.75,0,0,1,1.83-.7c1.57.08,4,.26,7.18.54s6.45.67,9.74,1.15,6.41,1,9.38,1.67a17.63,17.63,0,0,1,6.07,2.09,5.6,5.6,0,0,1,2.36,3.56,9.56,9.56,0,0,1-.27,4.6,26.18,26.18,0,0,1-2.13,5,50.31,50.31,0,0,1-3.12,5q-1.26,1.77-2.7,3.64t-3,4.08a135.66,135.66,0,0,1,22.72-6.63q9.15-1.62,13.88,1.75a6.5,6.5,0,0,1,2.42,3.94c.43,1.79.85,3.75,1.26,5.9A42.64,42.64,0,0,0,499,89.31a8.91,8.91,0,0,0,3.23,4.53,8.36,8.36,0,0,0,3.12,1.55l2,.31q1.19.84,0,2.46Z"/><path class="cls-5" d="M509.35,150.22c-1,.48-1.87.88-2.65,1.23s-1.65.78-2.6,1.3-2.14,1.2-3.56,2-3.25,1.92-5.5,3.33a100.21,100.21,0,0,0-8.83,6,29.12,29.12,0,0,0-4.9,4.65,6.68,6.68,0,0,0-1.64,3.7,5.86,5.86,0,0,0,1,3.32,11.42,11.42,0,0,0,1.75,2.12c.13.2,0,.56-.51,1.06s-.87.72-1.2.65a29.41,29.41,0,0,1-4.48-2.23,70.71,70.71,0,0,1-6.64-4.3q-3.49-2.52-6.82-5.46a26.16,26.16,0,0,1-4.87-5.4,10.28,10.28,0,0,1-1.57-3.72q-.22-1.56.54-2t1-.42a4.79,4.79,0,0,0,1.06,0,9.85,9.85,0,0,0,2.21-.74c.83-.38,1.82-.78,3-1.22,1.57-.69,3.51-1.62,5.85-2.79s4.86-2.47,7.61-3.89,5.56-2.94,8.48-4.54,5.7-3.24,8.37-4.9c1.13-.71,2.52-1.61,4.18-2.72s3.79-2.54,6.39-4.31a40.32,40.32,0,0,0,7-5.74,19.9,19.9,0,0,0,3.73-5.32,10.55,10.55,0,0,0,1-4.69,7.49,7.49,0,0,0-1-3.73l-1-1.54a9.53,9.53,0,0,0-1.11-1.44c-.26-.41.07-.9,1-1.48a.84.84,0,0,1,.68-.1,12.74,12.74,0,0,1,1.91.83q2.63,1.14,6.74,3.27t8,4.62c2.6,1.65,5,3.28,7.1,4.87a17.56,17.56,0,0,1,4.25,4.07q2.77,4.45-2.3,7.63c-.51.32-1.46.84-2.86,1.57s-2.8,1.5-4.22,2.31-2.77,1.55-4.06,2.21-2.15,1.13-2.56,1.39c3.39.87,6.94,1.86,10.62,3a73.71,73.71,0,0,1,10.91,4.3,54.83,54.83,0,0,1,10,6.34,34.42,34.42,0,0,1,7.83,8.79q5.76,9.23,4.14,18.45t-13.14,16.42q-3.08,1.92-7.47,4.12t-9.14,4.53q-4.74,2.32-9.29,4.62c-3,1.53-5.67,3-7.92,4.41q-12.31,7.68-7.32,15.67a15.46,15.46,0,0,0,2.7,3.12c1.16,1.06,2.33,2,3.53,2.93s2.31,1.65,3.35,2.28a9.37,9.37,0,0,0,2.3,1.13c.17,0,.17.22,0,.53a4.36,4.36,0,0,1-.76,1,3.35,3.35,0,0,1-1,.74,1.52,1.52,0,0,1-.76.16c-1-.5-3.11-1.67-6.23-3.48s-6.48-3.94-10-6.34-7-4.88-10.19-7.43a29.46,29.46,0,0,1-6.66-6.73q-2.21-3.54-1.33-5.9a6.78,6.78,0,0,1,2.73-3.52,18,18,0,0,1,3.31-1.53c1.39-.51,3.59-1.42,6.62-2.74q4.83-2.18,11.17-5.37t13.25-7.52q13.53-8.43,17.41-17.8t-.82-16.89a22,22,0,0,0-7.12-7.31,22.75,22.75,0,0,0-8.93-3.18,29.3,29.3,0,0,0-9.81.35A40.28,40.28,0,0,0,509.35,150.22Z"/><path class="cls-5" d="M38.33,115.49q10.16-14.14,15.39-22.91a107,107,0,0,0,7.37-14.06c1.41-3.54,2-6.15,1.83-7.83a9.58,9.58,0,0,0-1.28-4.08c-.33-.51-.23-1.14.3-1.88.67-.93,1.23-1.22,1.69-.89a10.28,10.28,0,0,0,1.44,2.4l3.27,4.66c1.28,1.83,2.68,3.79,4.21,5.86s3,4,4.39,5.89,2.67,3.46,3.8,4.82A16.81,16.81,0,0,0,83.11,90a6.38,6.38,0,0,0-.43.75,7,7,0,0,1-.52.88c-.6.83-1.18,1-1.73.65A13.64,13.64,0,0,1,78.86,91a14.5,14.5,0,0,0-1.57-1.33,2.88,2.88,0,0,0-1.07-.56q-1.87-.3-5.42,3.16a94.16,94.16,0,0,0-7.54,8.46q-4,5-8,10.36t-6.45,8.84a25.8,25.8,0,0,0-4.54,12.62,37.48,37.48,0,0,0,1.86,15.42,57.29,57.29,0,0,0,8.89,16.48,75.06,75.06,0,0,0,16.54,15.77,80.66,80.66,0,0,0,18.1,9.94,55.33,55.33,0,0,0,17.46,3.81,34.46,34.46,0,0,0,15.46-2.79,29,29,0,0,0,12-9.92,30.88,30.88,0,0,0,5.4-26,33.42,33.42,0,0,0-5.24-11.44,38.11,38.11,0,0,0-9-9.11,35.46,35.46,0,0,0-7.86-4.28,25.07,25.07,0,0,0-8.12-1.73,16,16,0,0,0-14,7q-4.19,5.84-3.31,10A9.83,9.83,0,0,0,96.23,152a9.19,9.19,0,0,0,5.74,1.82,6,6,0,0,0,4.91-2.58c.73-1,1.46-1.26,2.2-.73a1.46,1.46,0,0,1,.54,1q.47,1.4-.85,5.28a32.24,32.24,0,0,1-4.51,8.33A16.65,16.65,0,0,1,95,172a10.58,10.58,0,0,1-9.36-1.46c-1.76-1.26-2.87-3.33-3.34-6.18a29,29,0,0,1,.42-10.11,56.32,56.32,0,0,1,4.33-12.77,86.22,86.22,0,0,1,8.28-14,61.26,61.26,0,0,1,9.52-10.62A39.17,39.17,0,0,1,115,110.26a23.28,23.28,0,0,1,9.88-2.05,15.53,15.53,0,0,1,8.88,3q6.12,4.38,10.19,13.2a57.77,57.77,0,0,1,5,19.75,72.47,72.47,0,0,1-2,22.85,64,64,0,0,1-10.45,22.47,67.66,67.66,0,0,1-16.92,17,49.09,49.09,0,0,1-18.9,7.88,46.64,46.64,0,0,1-19.65-.76,55.91,55.91,0,0,1-19.06-9.05,49.65,49.65,0,0,1-11.55-11.45,66,66,0,0,1-7.49-13.58,79.24,79.24,0,0,1-4.3-14.23,99.81,99.81,0,0,1-1.79-13.17,62.68,62.68,0,0,1,.1-10.55A30,30,0,0,1,38,135.25c-2.17,3.22-4.43,6.67-6.81,10.36s-4.55,7.28-6.56,10.75a106,106,0,0,0-4.92,9.5c-1.29,2.86-1.89,5-1.82,6.48A10.62,10.62,0,0,0,19,176.93a34.69,34.69,0,0,0,2.55,4.36,4.81,4.81,0,0,1-1.64,1.55,3.15,3.15,0,0,1-2.39,0,30,30,0,0,0-3.33-6.5c-1.71-2.69-3.53-5.48-5.47-8.34S5,162.53,3.26,160.24.45,156.44,0,155.69a3.38,3.38,0,0,1,.62-1.44,2.9,2.9,0,0,1,1.07-.91A14.36,14.36,0,0,0,4,155.64a2.13,2.13,0,0,0,2.8-.09,60.15,60.15,0,0,0,8.68-9q4.68-5.79,10.36-13.7Z"/></g></g></svg>